<svg xmlns='http://www.w3.org/2000/svg' class="pikchr" viewBox="0 0 1615.78 767.163">
<circle cx="300" cy="42" r="5.4" style="fill:rgb(0,0,0);stroke-width:2.16;stroke:rgb(0,0,0);" />
<path d="M1525,51L1530,51L1530,33L1525,33Z"  style="fill:rgb(0,0,0);stroke-width:2.16;stroke:rgb(0,0,0);" />
<polygon points="1525,42 1513,46 1513,38" style="fill:rgb(0,0,0)"/>
<path d="M300,42L1519,42"  style="fill:none;stroke-width:2.16;stroke:rgb(0,0,0);stroke-dasharray:7.2,7.2;" />
<polygon points="264,42 276,38 276,46" style="fill:rgb(0,0,0)"/>
<path d="M300,42L270,42"  style="fill:none;stroke-width:2.16;stroke:rgb(0,0,0);" />
<path d="M300,42L300,722"  style="fill:none;stroke-width:1.4472;stroke:rgb(0,0,0);stroke-dasharray:2.1,7.2;" />
<path d="M300,722L300,739"  style="fill:none;stroke-width:2.16;stroke:rgb(0,0,0);" />
<text x="300" y="754" text-anchor="middle" fill="rgb(0,0,0)" dominant-baseline="central">1998</text>
<path d="M481,722L481,739"  style="fill:none;stroke-width:2.16;stroke:rgb(0,0,0);" />
<text x="481" y="754" text-anchor="middle" fill="rgb(0,0,0)" dominant-baseline="central">2002</text>
<path d="M618,722L618,739"  style="fill:none;stroke-width:2.16;stroke:rgb(0,0,0);" />
<text x="618" y="754" text-anchor="middle" fill="rgb(0,0,0)" dominant-baseline="central">2005</text>
<path d="M754,722L754,739"  style="fill:none;stroke-width:2.16;stroke:rgb(0,0,0);" />
<text x="754" y="754" text-anchor="middle" fill="rgb(0,0,0)" dominant-baseline="central">2008</text>
<path d="M935,722L935,739"  style="fill:none;stroke-width:2.16;stroke:rgb(0,0,0);" />
<text x="935" y="754" text-anchor="middle" fill="rgb(0,0,0)" dominant-baseline="central">2012</text>
<path d="M1207,722L1207,739"  style="fill:none;stroke-width:2.16;stroke:rgb(0,0,0);" />
<text x="1207" y="754" text-anchor="middle" fill="rgb(0,0,0)" dominant-baseline="central">2018</text>
<path d="M1434,722L1434,739"  style="fill:none;stroke-width:2.16;stroke:rgb(0,0,0);" />
<text x="1434" y="754" text-anchor="middle" fill="rgb(0,0,0)" dominant-baseline="central">2023</text>
<path d="M334,42 L 334,77 Q 334,99 356,99 L 630,99 L 652,99"  style="fill:none;stroke-width:2.16;stroke:rgb(169,169,169);" />
<circle cx="652" cy="99" r="2.16" style="fill:rgb(169,169,169);stroke-width:2.16;stroke:rgb(169,169,169);" />
<circle cx="686" cy="99" r="2.16" style="fill:rgb(169,169,169);stroke-width:2.16;stroke:rgb(169,169,169);" />
<path d="M686,99L1530,99"  style="fill:none;stroke-width:2.16;stroke:rgb(169,169,169);" />
<path d="M368,42 L 368,134 Q 368,155 372,155 L 376,155"  style="fill:none;stroke-width:2.16;stroke:rgb(255,165,0);" />
<path d="M376,155L693,155"  style="fill:none;stroke-width:2.16;stroke:rgb(0,0,255);" />
<circle cx="693" cy="155" r="2.16" style="fill:rgb(0,0,255);stroke-width:2.16;stroke:rgb(0,0,255);" />
<path d="M513,42 L 513,190 Q 513,212 535,212 L 764,212 L 785,212"  style="fill:none;stroke-width:2.16;stroke:rgb(255,0,0);" />
<circle cx="785" cy="212" r="2.16" style="fill:rgb(255,0,0);stroke-width:2.16;stroke:rgb(255,0,0);" />
<circle cx="967" cy="212" r="2.16" style="fill:rgb(255,0,0);stroke-width:2.16;stroke:rgb(255,0,0);" />
<path d="M967,212L1530,212"  style="fill:none;stroke-width:2.16;stroke:rgb(255,0,0);" />
<path d="M645,42 L 645,474 Q 645,496 666,496 L 669,496 L 690,496"  style="fill:none;stroke-width:2.16;stroke:rgb(210,105,30);" />
<path d="M690,496L735,496"  style="fill:none;stroke-width:2.16;stroke:rgb(138,43,226);" />
<path d="M735,496L971,496"  style="fill:none;stroke-width:2.16;stroke:rgb(50,205,50);" />
<path d="M971,496L1017,496"  style="fill:none;stroke-width:2.16;stroke:rgb(0,191,255);" />
<path d="M1017,496L1107,496"  style="fill:none;stroke-width:2.16;stroke:rgb(50,205,50);" />
<path d="M1107,496L1243,496"  style="fill:none;stroke-width:2.16;stroke:rgb(0,0,0);" />
<path d="M1243,496L1289,496"  style="fill:none;stroke-width:2.16;stroke:rgb(210,105,30);" />
<path d="M1289,496L1379,496"  style="fill:none;stroke-width:2.16;stroke:rgb(0,0,0);" />
<path d="M1379,496L1398,496"  style="fill:none;stroke-width:2.16;stroke:rgb(50,205,50);" />
<path d="M1398,496L1530,496"  style="fill:none;stroke-width:2.16;stroke:rgb(255,215,0);" />
<path d="M1248,42 L 1248,304 Q 1248,325 1270,325 L 1362,325 L 1384,325"  style="fill:none;stroke-width:2.16;stroke:rgb(221,160,221);" />
<path d="M1384,325L1530,325"  style="fill:none;stroke-width:2.16;stroke:rgb(128,128,128);" />
<path d="M978,42 L 978,361 Q 978,382 1000,382 L 1412,382 L 1434,382"  style="fill:none;stroke-width:2.16;stroke:rgb(165,42,42);" />
<circle cx="1434" cy="382" r="2.16" style="fill:rgb(165,42,42);stroke-width:2.16;stroke:rgb(165,42,42);" />
<path d="M1230,42 L 1230,417 Q 1230,439 1251,439 L 1412,439 L 1434,439"  style="fill:none;stroke-width:2.16;stroke:rgb(0,0,0);" />
<circle cx="1434" cy="439" r="2.16" style="fill:rgb(0,0,0);stroke-width:2.16;stroke:rgb(0,0,0);" />
<text x="282" y="12" text-anchor="end" fill="rgb(0,0,0)" dominant-baseline="central">Way way back in the late 80s/90s</text>
<text x="282" y="32" text-anchor="end" fill="rgb(0,0,0)" dominant-baseline="central">Spectrum and Macintosh SE</text>
<text x="334" y="70" text-anchor="start" fill="rgb(0,0,0)" dominant-baseline="central">'98 My parents got a PC, mouse had 2 buttons(???)</text>
<text x="652" y="109" text-anchor="start" fill="rgb(0,0,0)" dominant-baseline="central">Removed all Windows for a while</text>
<text x="369" y="144" text-anchor="start" fill="rgb(0,0,0)" dominant-baseline="central">Started w/ Redhat 5.2(4 CDs)</text>
<text x="376" y="165" text-anchor="start" fill="rgb(0,0,0)" dominant-baseline="central">but RH sucked, switched to Slackware 7</text>
<text x="520" y="196" text-anchor="start" fill="rgb(0,0,0)" dominant-baseline="central">OpenBSD 3.2 for firewall/tarpit</text>
<text x="513" y="222" text-anchor="start" fill="rgb(0,0,0)" dominant-baseline="central">(also FreeBSD ...)</text>
<text x="785" y="222" text-anchor="start" fill="rgb(0,0,0)" dominant-baseline="central">Powered off OpenBSD machine</text>
<text x="651" y="479" text-anchor="start" fill="rgb(0,0,0)" dominant-baseline="central">Bought laptop; tried Ubuntu; hated it; moved to Gentoo</text>
<text x="735" y="506" text-anchor="start" fill="rgb(0,0,0)" dominant-baseline="central">My laptop broke in half, got new one, installed openSUSE</text>
<text x="971" y="524" text-anchor="start" fill="rgb(0,0,0)" dominant-baseline="central">Used Fedora for a bit - openSUSE 12.x was bad</text>
<text x="1017" y="552" text-anchor="start" fill="rgb(0,0,0)" dominant-baseline="central">openSUSE/btrfs/system was bad, switch to Void</text>
<text x="1243" y="581" text-anchor="start" fill="rgb(0,0,0)" dominant-baseline="central">laptop swap (UEFI problem so ubuntu)</text>
<text x="1289" y="609" text-anchor="start" fill="rgb(0,0,0)" dominant-baseline="central">UEFI fixed, back to Void</text>
<text x="1379" y="637" text-anchor="start" fill="rgb(0,0,0)" dominant-baseline="central">openSUSE briefly then Guix</text>
<text x="984" y="366" text-anchor="start" fill="rgb(0,0,0)" dominant-baseline="central">Debian on RPi</text>
<text x="1236" y="422" text-anchor="start" fill="rgb(0,0,0)" dominant-baseline="central">Void on RPi (great cross compile)</text>
<text x="1434" y="372" text-anchor="start" fill="rgb(0,0,0)" dominant-baseline="central">Shut down some Pi</text>
<text x="1254" y="309" text-anchor="start" fill="rgb(0,0,0)" dominant-baseline="central">$DAYJOB MacOS laptop</text>
<text x="1384" y="336" text-anchor="start" fill="rgb(0,0,0)" dominant-baseline="central">and then windows</text>
</svg>

