<svg xmlns='http://www.w3.org/2000/svg' class="pikchr" viewBox="0 0 1734.45 608.508">
<path d="M145,582L145,15"  style="fill:none;stroke-width:0.566929;stroke:rgb(0,0,0);stroke-dasharray:7.2,7.2;" />
<path d="M202,582L202,15"  style="fill:none;stroke-width:0.566929;stroke:rgb(0,0,0);stroke-dasharray:7.2,7.2;" />
<path d="M259,582L259,15"  style="fill:none;stroke-width:0.566929;stroke:rgb(0,0,0);stroke-dasharray:7.2,7.2;" />
<path d="M315,582L315,15"  style="fill:none;stroke-width:0.566929;stroke:rgb(0,0,0);stroke-dasharray:7.2,7.2;" />
<path d="M372,582L372,15"  style="fill:none;stroke-width:0.566929;stroke:rgb(0,0,0);stroke-dasharray:7.2,7.2;" />
<path d="M429,582L429,15"  style="fill:none;stroke-width:0.566929;stroke:rgb(0,0,0);stroke-dasharray:7.2,7.2;" />
<path d="M486,582L486,15"  style="fill:none;stroke-width:0.566929;stroke:rgb(0,0,0);stroke-dasharray:7.2,7.2;" />
<path d="M542,582L542,15"  style="fill:none;stroke-width:0.566929;stroke:rgb(0,0,0);stroke-dasharray:7.2,7.2;" />
<path d="M599,582L599,15"  style="fill:none;stroke-width:0.566929;stroke:rgb(0,0,0);stroke-dasharray:7.2,7.2;" />
<path d="M656,582L656,15"  style="fill:none;stroke-width:0.566929;stroke:rgb(0,0,0);stroke-dasharray:7.2,7.2;" />
<path d="M712,582L712,15"  style="fill:none;stroke-width:0.566929;stroke:rgb(0,0,0);stroke-dasharray:7.2,7.2;" />
<path d="M769,582L769,15"  style="fill:none;stroke-width:0.566929;stroke:rgb(0,0,0);stroke-dasharray:7.2,7.2;" />
<path d="M826,582L826,15"  style="fill:none;stroke-width:0.566929;stroke:rgb(0,0,0);stroke-dasharray:7.2,7.2;" />
<path d="M882,582L882,15"  style="fill:none;stroke-width:0.566929;stroke:rgb(0,0,0);stroke-dasharray:7.2,7.2;" />
<path d="M939,582L939,15"  style="fill:none;stroke-width:0.566929;stroke:rgb(0,0,0);stroke-dasharray:7.2,7.2;" />
<path d="M996,582L996,15"  style="fill:none;stroke-width:0.566929;stroke:rgb(0,0,0);stroke-dasharray:7.2,7.2;" />
<path d="M1052,582L1052,15"  style="fill:none;stroke-width:0.566929;stroke:rgb(0,0,0);stroke-dasharray:7.2,7.2;" />
<path d="M1109,582L1109,15"  style="fill:none;stroke-width:0.566929;stroke:rgb(0,0,0);stroke-dasharray:7.2,7.2;" />
<path d="M1166,582L1166,15"  style="fill:none;stroke-width:0.566929;stroke:rgb(0,0,0);stroke-dasharray:7.2,7.2;" />
<path d="M1223,582L1223,15"  style="fill:none;stroke-width:0.566929;stroke:rgb(0,0,0);stroke-dasharray:7.2,7.2;" />
<path d="M1279,582L1279,15"  style="fill:none;stroke-width:0.566929;stroke:rgb(0,0,0);stroke-dasharray:7.2,7.2;" />
<path d="M1336,582L1336,15"  style="fill:none;stroke-width:0.566929;stroke:rgb(0,0,0);stroke-dasharray:7.2,7.2;" />
<path d="M1393,582L1393,15"  style="fill:none;stroke-width:0.566929;stroke:rgb(0,0,0);stroke-dasharray:7.2,7.2;" />
<path d="M1449,582L1449,15"  style="fill:none;stroke-width:0.566929;stroke:rgb(0,0,0);stroke-dasharray:7.2,7.2;" />
<path d="M1506,582L1506,15"  style="fill:none;stroke-width:0.566929;stroke:rgb(0,0,0);stroke-dasharray:7.2,7.2;" />
<path d="M1563,582L1563,15"  style="fill:none;stroke-width:0.566929;stroke:rgb(0,0,0);stroke-dasharray:7.2,7.2;" />
<path d="M1619,582L1619,15"  style="fill:none;stroke-width:0.566929;stroke:rgb(0,0,0);stroke-dasharray:7.2,7.2;" />
<path d="M1676,582L1676,15"  style="fill:none;stroke-width:0.566929;stroke:rgb(0,0,0);stroke-dasharray:7.2,7.2;" />
<text x="145" y="15" text-anchor="start" fill="rgb(0,0,0)" dominant-baseline="central">1998</text>
<text x="202" y="15" text-anchor="start" fill="rgb(0,0,0)" dominant-baseline="central">1999</text>
<text x="259" y="15" text-anchor="start" fill="rgb(0,0,0)" dominant-baseline="central">2000</text>
<text x="315" y="15" text-anchor="start" fill="rgb(0,0,0)" dominant-baseline="central">2001</text>
<text x="372" y="15" text-anchor="start" fill="rgb(0,0,0)" dominant-baseline="central">2002</text>
<text x="429" y="15" text-anchor="start" fill="rgb(0,0,0)" dominant-baseline="central">2003</text>
<text x="486" y="15" text-anchor="start" fill="rgb(0,0,0)" dominant-baseline="central">2004</text>
<text x="542" y="15" text-anchor="start" fill="rgb(0,0,0)" dominant-baseline="central">2005</text>
<text x="599" y="15" text-anchor="start" fill="rgb(0,0,0)" dominant-baseline="central">2006</text>
<text x="656" y="15" text-anchor="start" fill="rgb(0,0,0)" dominant-baseline="central">2007</text>
<text x="712" y="15" text-anchor="start" fill="rgb(0,0,0)" dominant-baseline="central">2008</text>
<text x="769" y="15" text-anchor="start" fill="rgb(0,0,0)" dominant-baseline="central">2009</text>
<text x="826" y="15" text-anchor="start" fill="rgb(0,0,0)" dominant-baseline="central">2010</text>
<text x="882" y="15" text-anchor="start" fill="rgb(0,0,0)" dominant-baseline="central">2011</text>
<text x="939" y="15" text-anchor="start" fill="rgb(0,0,0)" dominant-baseline="central">2012</text>
<text x="996" y="15" text-anchor="start" fill="rgb(0,0,0)" dominant-baseline="central">2013</text>
<text x="1052" y="15" text-anchor="start" fill="rgb(0,0,0)" dominant-baseline="central">2014</text>
<text x="1109" y="15" text-anchor="start" fill="rgb(0,0,0)" dominant-baseline="central">2015</text>
<text x="1166" y="15" text-anchor="start" fill="rgb(0,0,0)" dominant-baseline="central">2016</text>
<text x="1223" y="15" text-anchor="start" fill="rgb(0,0,0)" dominant-baseline="central">2017</text>
<text x="1279" y="15" text-anchor="start" fill="rgb(0,0,0)" dominant-baseline="central">2018</text>
<text x="1336" y="15" text-anchor="start" fill="rgb(0,0,0)" dominant-baseline="central">2019</text>
<text x="1393" y="15" text-anchor="start" fill="rgb(0,0,0)" dominant-baseline="central">2020</text>
<text x="1393" y="15" text-anchor="start" fill="rgb(0,0,0)" dominant-baseline="central">2020</text>
<text x="1449" y="15" text-anchor="start" fill="rgb(0,0,0)" dominant-baseline="central">2021</text>
<text x="1506" y="15" text-anchor="start" fill="rgb(0,0,0)" dominant-baseline="central">2022</text>
<text x="1563" y="15" text-anchor="start" fill="rgb(0,0,0)" dominant-baseline="central">2023</text>
<text x="1619" y="15" text-anchor="start" fill="rgb(0,0,0)" dominant-baseline="central">2024</text>
<circle cx="188" cy="582" r="2.16" style="fill:rgb(169,169,169);stroke-width:5.66929;stroke:rgb(169,169,169);" />
<path d="M188,582L585,582"  style="fill:none;stroke-width:5.66929;stroke:rgb(169,169,169);" />
<circle cx="585" cy="582" r="2.16" style="fill:rgb(169,169,169);stroke-width:5.66929;stroke:rgb(169,169,169);" />
<circle cx="627" cy="582" r="2.16" style="fill:rgb(169,169,169);stroke-width:5.66929;stroke:rgb(169,169,169);" />
<path d="M627,582L1676,582"  style="fill:none;stroke-width:5.66929;stroke:rgb(169,169,169);" />
<circle cx="230" cy="525" r="2.16" style="fill:rgb(255,165,0);stroke-width:5.66929;stroke:rgb(255,165,0);" />
<path d="M230,525L240,525"  style="fill:none;stroke-width:5.66929;stroke:rgb(255,165,0);" />
<circle cx="240" cy="525" r="2.16" style="fill:rgb(0,0,255);stroke-width:5.66929;stroke:rgb(0,0,255);" />
<path d="M240,525L637,525"  style="fill:none;stroke-width:5.66929;stroke:rgb(0,0,255);" />
<circle cx="637" cy="525" r="2.16" style="fill:rgb(0,0,255);stroke-width:5.66929;stroke:rgb(0,0,255);" />
<circle cx="576" cy="412" r="2.16" style="fill:rgb(210,105,30);stroke-width:5.66929;stroke:rgb(210,105,30);" />
<path d="M576,412L633,412"  style="fill:none;stroke-width:5.66929;stroke:rgb(210,105,30);" />
<circle cx="633" cy="412" r="2.16" style="fill:rgb(138,43,226);stroke-width:5.66929;stroke:rgb(138,43,226);" />
<path d="M633,412L690,412"  style="fill:none;stroke-width:5.66929;stroke:rgb(138,43,226);" />
<circle cx="690" cy="412" r="2.16" style="fill:rgb(50,205,50);stroke-width:5.66929;stroke:rgb(50,205,50);" />
<path d="M690,412L984,412"  style="fill:none;stroke-width:5.66929;stroke:rgb(50,205,50);" />
<circle cx="984" cy="412" r="2.16" style="fill:rgb(0,191,255);stroke-width:5.66929;stroke:rgb(0,191,255);" />
<path d="M984,412L1041,412"  style="fill:none;stroke-width:5.66929;stroke:rgb(0,191,255);" />
<circle cx="1041" cy="412" r="2.16" style="fill:rgb(50,205,50);stroke-width:5.66929;stroke:rgb(50,205,50);" />
<path d="M1041,412L1155,412"  style="fill:none;stroke-width:5.66929;stroke:rgb(50,205,50);" />
<circle cx="1155" cy="412" r="2.16" style="fill:rgb(0,0,0);stroke-width:5.66929;stroke:rgb(0,0,0);" />
<path d="M1155,412L1325,412"  style="fill:none;stroke-width:5.66929;stroke:rgb(0,0,0);" />
<circle cx="1325" cy="412" r="2.16" style="fill:rgb(210,105,30);stroke-width:5.66929;stroke:rgb(210,105,30);" />
<path d="M1325,412L1381,412"  style="fill:none;stroke-width:5.66929;stroke:rgb(210,105,30);" />
<circle cx="1381" cy="412" r="2.16" style="fill:rgb(0,0,0);stroke-width:5.66929;stroke:rgb(0,0,0);" />
<path d="M1381,412L1495,412"  style="fill:none;stroke-width:5.66929;stroke:rgb(0,0,0);" />
<circle cx="1495" cy="412" r="2.16" style="fill:rgb(50,205,50);stroke-width:5.66929;stroke:rgb(50,205,50);" />
<path d="M1495,412L1517,412"  style="fill:none;stroke-width:5.66929;stroke:rgb(50,205,50);" />
<circle cx="1517" cy="412" r="2.16" style="fill:rgb(255,215,0);stroke-width:5.66929;stroke:rgb(255,215,0);" />
<path d="M1517,412L1676,412"  style="fill:none;stroke-width:5.66929;stroke:rgb(255,215,0);" />
<circle cx="412" cy="355" r="2.16" style="fill:rgb(255,0,0);stroke-width:5.66929;stroke:rgb(255,0,0);" />
<path d="M412,355L752,355"  style="fill:none;stroke-width:5.66929;stroke:rgb(255,0,0);" />
<circle cx="752" cy="355" r="2.16" style="fill:rgb(255,0,0);stroke-width:5.66929;stroke:rgb(255,0,0);" />
<circle cx="979" cy="355" r="2.16" style="fill:rgb(255,0,0);stroke-width:5.66929;stroke:rgb(255,0,0);" />
<path d="M979,355L1676,355"  style="fill:none;stroke-width:5.66929;stroke:rgb(255,0,0);" />
<circle cx="1330" cy="299" r="2.16" style="fill:rgb(255,192,203);stroke-width:5.66929;stroke:rgb(255,192,203);" />
<path d="M1330,299L1500,299"  style="fill:none;stroke-width:5.66929;stroke:rgb(255,192,203);" />
<path d="M1500,299L1676,299"  style="fill:none;stroke-width:5.66929;stroke:rgb(128,128,128);" />
<circle cx="993" cy="242" r="2.16" style="fill:rgb(165,42,42);stroke-width:5.66929;stroke:rgb(165,42,42);" />
<path d="M993,242L1563,242"  style="fill:none;stroke-width:5.66929;stroke:rgb(165,42,42);" />
<circle cx="1563" cy="242" r="2.16" style="fill:rgb(165,42,42);stroke-width:5.66929;stroke:rgb(165,42,42);" />
<circle cx="1308" cy="185" r="2.16" style="fill:rgb(0,0,0);stroke-width:5.66929;stroke:rgb(0,0,0);" />
<path d="M1308,185L1563,185"  style="fill:none;stroke-width:5.66929;stroke:rgb(0,0,0);" />
<circle cx="1563" cy="185" r="2.16" style="fill:rgb(0,0,0);stroke-width:5.66929;stroke:rgb(0,0,0);" />
<text x="145" y="289" text-anchor="middle" fill="rgb(0,0,0)" dominant-baseline="central">Way way back in the late 80s/90s</text>
<text x="145" y="309" text-anchor="middle" fill="rgb(0,0,0)" dominant-baseline="central">Spectrum and Macintosh SE</text>
<text x="993" y="252" text-anchor="start" fill="rgb(0,0,0)" dominant-baseline="central">Debian on RPi</text>
<text x="1308" y="195" text-anchor="start" fill="rgb(0,0,0)" dominant-baseline="central">Void on RPi (great cross compile)</text>
<text x="188" y="572" text-anchor="start" fill="rgb(0,0,0)" dominant-baseline="central">My parents got a PC, mouse had 2 buttons(???)</text>
<text x="585" y="592" text-anchor="start" fill="rgb(0,0,0)" dominant-baseline="central">Removed windows</text>
<text x="627" y="572" text-anchor="start" fill="rgb(0,0,0)" dominant-baseline="central">but reinstalled windows for some reason</text>
<text x="230" y="515" text-anchor="start" fill="rgb(0,0,0)" dominant-baseline="central">Started w/ Redhat 5.2(4 CDs)</text>
<text x="240" y="536" text-anchor="start" fill="rgb(0,0,0)" dominant-baseline="central">but RH sucked, switched to Slackware 7</text>
<text x="576" y="402" text-anchor="start" fill="rgb(0,0,0)" dominant-baseline="central">Bought laptop; tried Ubuntu; hated it; moved to Gentoo</text>
<text x="690" y="422" text-anchor="start" fill="rgb(0,0,0)" dominant-baseline="central">My laptop broke in half, got new one, installed openSUSE</text>
<text x="412" y="365" text-anchor="start" fill="rgb(0,0,0)" dominant-baseline="central">OpenBSD 3.2 for firewall/tarpit</text>
<text x="752" y="345" text-anchor="start" fill="rgb(0,0,0)" dominant-baseline="central">Powered off OpenBSD machine</text>
<text x="979" y="365" text-anchor="start" fill="rgb(0,0,0)" dominant-baseline="central">Nostalgia. VM+APU2 router</text>
<text x="412" y="345" text-anchor="start" fill="rgb(0,0,0)" dominant-baseline="central">(also FreeBSD ...)</text>
<text x="1330" y="309" text-anchor="start" fill="rgb(0,0,0)" dominant-baseline="central">Work MacOS laptop</text>
<text x="1500" y="289" text-anchor="start" fill="rgb(0,0,0)" dominant-baseline="central">and then windows</text>
<text x="984" y="469" text-anchor="start" fill="rgb(0,0,0)" dominant-baseline="central">Used Fedora - openSUSE 12.x was bad</text>
<text x="1041" y="536" text-anchor="start" fill="rgb(0,0,0)" dominant-baseline="central">openSUSE/btrfs/system was bad, switch to Void</text>
<text x="1325" y="422" text-anchor="start" fill="rgb(0,0,0)" dominant-baseline="central">laptop swap (UEFI problem so ubuntu)</text>
<text x="1381" y="469" text-anchor="start" fill="rgb(0,0,0)" dominant-baseline="central">UEFI fixed</text>
<text x="1495" y="402" text-anchor="start" fill="rgb(0,0,0)" dominant-baseline="central">openSUSE briefly then Guix</text>
</svg>

